<!DOCTYPE svg PUBLIC "-//W3C//DTD SVG 1.1//EN" "http://www.w3.org/Graphics/SVG/1.1/DTD/svg11.dtd">

<!-- Uploaded to: SVG Repo, www.svgrepo.com, Transformed by: SVG Repo Mixer Tools -->
<svg width="64px" height="64px" viewBox="0 0 24 24" xmlns="http://www.w3.org/2000/svg" fill="#FCFFE7">

<g id="SVGRepo_bgCarrier" stroke-width="0"/>

<g id="SVGRepo_tracerCarrier" stroke-linecap="round" stroke-linejoin="round"/>

<g id="SVGRepo_iconCarrier">

<path d="M21 13.293V3h-8V1H8v2H3v4h1V4h4v2h5V4h7v9.293L17.707 11l-.707.707 3.5 3.5 3.5-3.5-.707-.707zM12 5H9V2h3zm8 15h-3v-2h-5v2H4v-9.293L6.293 13 7 12.293l-3.5-3.5-3.5 3.5.707.707L3 10.707V21h9v2h5v-2h4v-4h-1zm-4 2h-3v-3h3z"/>

<path fill="none" d="M0 0h24v24H0z"/>

</g>

</svg>